<mxfile host="app.diagrams.net" modified="2021-07-14T13:32:19.986Z" agent="5.0 (X11; Linux x86_64) AppleWebKit/537.36 (KHTML, like Gecko) Chrome/91.0.4472.114 Safari/537.36" etag="PewwHESh2V-3SUPX7FG8" version="14.8.4" type="github">
  <diagram id="GEY5EpuHzsWq6uhQ1gqM" name="Page-1">
    <mxGraphModel dx="970" dy="718" grid="1" gridSize="10" guides="1" tooltips="1" connect="1" arrows="1" fold="1" page="1" pageScale="1" pageWidth="827" pageHeight="1169" math="0" shadow="0">
      <root>
        <mxCell id="0" />
        <mxCell id="1" parent="0" />
        <mxCell id="o_vpPmIV_0xNlqaq6Efz-1" value="&lt;h1&gt;f : A -&amp;gt; B&lt;br&gt;f.x = E&lt;/h1&gt;" style="text;html=1;strokeColor=none;fillColor=none;spacing=5;spacingTop=-20;whiteSpace=wrap;overflow=hidden;rounded=0;" vertex="1" parent="1">
          <mxGeometry x="310" y="150" width="130" height="70" as="geometry" />
        </mxCell>
        <mxCell id="o_vpPmIV_0xNlqaq6Efz-2" value="Perfil&lt;br&gt;" style="text;html=1;align=center;verticalAlign=middle;resizable=0;points=[];autosize=1;strokeColor=none;" vertex="1" parent="1">
          <mxGeometry x="450" y="110" width="40" height="20" as="geometry" />
        </mxCell>
        <mxCell id="o_vpPmIV_0xNlqaq6Efz-3" value="Expresion que&lt;br&gt;define la funcion" style="text;html=1;align=center;verticalAlign=middle;resizable=0;points=[];autosize=1;strokeColor=none;" vertex="1" parent="1">
          <mxGeometry x="370" y="390" width="100" height="30" as="geometry" />
        </mxCell>
        <mxCell id="o_vpPmIV_0xNlqaq6Efz-4" value="Parametro formal" style="text;html=1;align=center;verticalAlign=middle;resizable=0;points=[];autosize=1;strokeColor=none;" vertex="1" parent="1">
          <mxGeometry x="190" y="270" width="110" height="20" as="geometry" />
        </mxCell>
        <mxCell id="o_vpPmIV_0xNlqaq6Efz-5" value="Nombre de la funcion" style="text;html=1;align=center;verticalAlign=middle;resizable=0;points=[];autosize=1;strokeColor=none;" vertex="1" parent="1">
          <mxGeometry x="170" y="130" width="130" height="20" as="geometry" />
        </mxCell>
        <mxCell id="o_vpPmIV_0xNlqaq6Efz-7" value="" style="endArrow=classic;html=1;exitX=0.762;exitY=1.15;exitDx=0;exitDy=0;exitPerimeter=0;entryX=0;entryY=0.25;entryDx=0;entryDy=0;" edge="1" parent="1" source="o_vpPmIV_0xNlqaq6Efz-5" target="o_vpPmIV_0xNlqaq6Efz-1">
          <mxGeometry width="50" height="50" relative="1" as="geometry">
            <mxPoint x="390" y="380" as="sourcePoint" />
            <mxPoint x="320" y="160" as="targetPoint" />
          </mxGeometry>
        </mxCell>
        <mxCell id="o_vpPmIV_0xNlqaq6Efz-9" value="" style="endArrow=classic;html=1;exitX=0.936;exitY=0;exitDx=0;exitDy=0;exitPerimeter=0;entryX=0.123;entryY=1;entryDx=0;entryDy=0;entryPerimeter=0;" edge="1" parent="1" source="o_vpPmIV_0xNlqaq6Efz-4" target="o_vpPmIV_0xNlqaq6Efz-1">
          <mxGeometry width="50" height="50" relative="1" as="geometry">
            <mxPoint x="390" y="380" as="sourcePoint" />
            <mxPoint x="340" y="220" as="targetPoint" />
          </mxGeometry>
        </mxCell>
        <mxCell id="o_vpPmIV_0xNlqaq6Efz-11" value="" style="endArrow=classic;html=1;" edge="1" parent="1" target="o_vpPmIV_0xNlqaq6Efz-1">
          <mxGeometry width="50" height="50" relative="1" as="geometry">
            <mxPoint x="390" y="380" as="sourcePoint" />
            <mxPoint x="440" y="330" as="targetPoint" />
          </mxGeometry>
        </mxCell>
        <mxCell id="o_vpPmIV_0xNlqaq6Efz-12" value="" style="endArrow=classic;html=1;entryX=0.5;entryY=0;entryDx=0;entryDy=0;" edge="1" parent="1" target="o_vpPmIV_0xNlqaq6Efz-1">
          <mxGeometry width="50" height="50" relative="1" as="geometry">
            <mxPoint x="440" y="120" as="sourcePoint" />
            <mxPoint x="380" y="140" as="targetPoint" />
          </mxGeometry>
        </mxCell>
      </root>
    </mxGraphModel>
  </diagram>
</mxfile>
